<svg width="26" height="26" viewBox="0 0 26 26" fill="none" xmlns="http://www.w3.org/2000/svg">
<path d="M19.664 24.3701H7.0686V20.7861L8.19501 19.9669V19.1476C8.19501 19.1476 8.40839 18.914 8.72111 18.5332C9.43675 17.6618 10.6726 16.0195 11.0623 14.642C11.6221 12.6625 10.8575 9.00991 10.8575 9.00991H16.1823C16.1823 9.00991 15.3128 12.0481 15.7727 14.0276C16.1071 15.4668 17.3627 17.5198 18.0231 18.5332C18.2711 18.9137 18.4352 19.1476 18.4352 19.1476V19.9669L19.664 20.7861V24.3701Z" fill="white"/>
<path d="M8.19501 19.9669L7.0686 20.7861V24.3701H19.664V20.7861L18.4352 19.9669M8.19501 19.9669V19.1476C8.19501 19.1476 8.40839 18.914 8.72111 18.5332M8.19501 19.9669H18.4352M18.4352 19.9669V19.1476C18.4352 19.1476 18.2711 18.9137 18.0231 18.5332M8.72111 18.5332C9.43675 17.6618 10.6726 16.0195 11.0623 14.642C11.6221 12.6625 10.8575 9.00991 10.8575 9.00991H16.1823C16.1823 9.00991 15.3128 12.0481 15.7727 14.0276C16.1071 15.4668 17.3627 17.5198 18.0231 18.5332M8.72111 18.5332H18.0231" stroke="url(#paint0_linear)" stroke-width="0.723179"/>
<path d="M14.4059 4.32918C14.7805 4.07362 15.0194 3.68615 15.0194 3.2524C15.0194 2.48282 14.2674 1.85895 13.3397 1.85895C12.4119 1.85895 11.6599 2.48282 11.6599 3.2524C11.6599 3.687 11.8997 4.07514 12.2756 4.33068L9.38018 6.63649C9.38018 6.63649 8.78026 7.20661 8.78026 7.73135C8.78026 8.25609 9.14021 9.32386 9.14021 9.32386L9.38018 10.6178H17.0592L17.4191 9.32386C17.4191 9.32386 17.899 8.25609 17.899 7.73135C17.899 7.20661 17.4191 6.63649 17.4191 6.63649L14.4059 4.32918Z" fill="white"/>
<path d="M9.14021 9.32386C9.14021 9.32386 8.78026 8.25609 8.78026 7.73135C8.78026 7.20661 9.38018 6.63649 9.38018 6.63649L12.2756 4.33068C11.8997 4.07514 11.6599 3.687 11.6599 3.2524C11.6599 2.48282 12.4119 1.85895 13.3397 1.85895C14.2674 1.85895 15.0194 2.48282 15.0194 3.2524C15.0194 3.68615 14.7805 4.07362 14.4059 4.32918L17.4191 6.63649C17.4191 6.63649 17.899 7.20661 17.899 7.73135C17.899 8.25609 17.4191 9.32386 17.4191 9.32386M9.14021 9.32386L9.38018 10.6178H17.0592L17.4191 9.32386M9.14021 9.32386H13.2797H17.4191" stroke="url(#paint1_linear)" stroke-width="0.723179"/>
<defs>
<linearGradient id="paint0_linear" x1="13.3663" y1="9.00991" x2="13.3663" y2="24.3701" gradientUnits="userSpaceOnUse">
<stop stop-color="#38180B"/>
<stop offset="1" stop-color="#3A1A0C"/>
</linearGradient>
<linearGradient id="paint1_linear" x1="13.3397" y1="1.85895" x2="13.3397" y2="10.6178" gradientUnits="userSpaceOnUse">
<stop stop-color="#38180B"/>
<stop offset="1" stop-color="#3A1A0C"/>
</linearGradient>
</defs>
</svg>
