<svg width="25" height="25" viewBox="0 0 25 25" fill="none" xmlns="http://www.w3.org/2000/svg">
<path d="M19.6174 23.8059H7.05846V20.1429L8.20969 19.2009L8.94229 17.6311C8.94229 17.6311 8.67598 16.2982 9.09928 14.91C9.71777 12.8816 12.082 9.15381 12.082 9.15381C12.082 9.15381 11.2971 10.305 9.57024 9.88641C7.84339 9.46778 6.11654 10.7237 6.11654 10.7237L5.27928 8.21189L8.20969 6.43271C8.20969 6.43271 8.18617 5.43504 8.94229 4.86284C9.69841 4.29065 12.082 3.5023 12.082 3.5023V1.19983C12.082 1.19983 17.1966 4.52355 18.3615 7.79326C19.5263 11.063 18.0475 17.6311 18.0475 17.6311L18.4661 19.2009L19.6174 20.1429V23.8059Z" fill="white"/>
<path d="M18.4661 19.2009L19.6174 20.1429V23.8059H7.05846V20.1429L8.20969 19.2009M18.4661 19.2009L18.0475 17.6311M18.4661 19.2009H8.20969M18.0475 17.6311C18.0475 17.6311 19.5263 11.063 18.3615 7.79326C17.1966 4.52355 12.082 1.19983 12.082 1.19983V3.5023C12.082 3.5023 9.69841 4.29065 8.94229 4.86284C8.18617 5.43504 8.20969 6.43271 8.20969 6.43271L5.27928 8.21189L6.11654 10.7237C6.11654 10.7237 7.84339 9.46778 9.57024 9.88641C11.2971 10.305 12.082 9.15381 12.082 9.15381C12.082 9.15381 9.71777 12.8816 9.09928 14.91C8.67598 16.2982 8.94229 17.6311 8.94229 17.6311M18.0475 17.6311H8.94229M8.94229 17.6311L8.20969 19.2009" stroke="url(#paint0_linear)" stroke-width="0.723179"/>
<defs>
<linearGradient id="paint0_linear" x1="12.4483" y1="1.19983" x2="12.4483" y2="23.8059" gradientUnits="userSpaceOnUse">
<stop stop-color="#38180B"/>
<stop offset="1" stop-color="#3A1A0C"/>
</linearGradient>
</defs>
</svg>
