<svg width="25" height="31" viewBox="0 0 25 31" fill="none" xmlns="http://www.w3.org/2000/svg">
<path d="M18.8629 30.2794H6.26752V26.6954L7.39394 25.8762V25.0569C7.39394 25.0569 7.60732 24.8233 7.92004 24.4425C8.63567 23.5711 9.87157 21.9288 10.2612 20.5513C10.821 18.5718 10.0564 14.9192 10.0564 14.9192H15.3812C15.3812 14.9192 14.5118 17.9574 14.9716 19.9369C15.306 21.3761 16.5616 23.4291 17.2221 24.4425C17.47 24.823 17.6341 25.0569 17.6341 25.0569V25.8762L18.8629 26.6954V30.2794Z" fill="white"/>
<path d="M7.39394 25.8762L6.26752 26.6954V30.2794H18.8629V26.6954L17.6341 25.8762M7.39394 25.8762V25.0569C7.39394 25.0569 7.60732 24.8233 7.92004 24.4425M7.39394 25.8762H17.6341M17.6341 25.8762V25.0569C17.6341 25.0569 17.47 24.823 17.2221 24.4425M7.92004 24.4425C8.63567 23.5711 9.87157 21.9288 10.2612 20.5513C10.821 18.5718 10.0564 14.9192 10.0564 14.9192H15.3812C15.3812 14.9192 14.5118 17.9574 14.9716 19.9369C15.306 21.3761 16.5616 23.4291 17.2221 24.4425M7.92004 24.4425H17.2221" stroke="url(#paint0_linear)" stroke-width="0.723179"/>
<path d="M12.1093 5.043V3.66317H10.7037V2.72616H12.0156V1.32063H13.0463V2.72616H14.3581V3.66317H13.0463V5.03257C13.6961 5.20253 14.077 5.73113 14.077 6.38053C14.077 6.84904 13.9904 7.15759 13.569 7.46423L17.6377 11.4404L15.3888 13.4082H15.951V15.5633H9.20452V13.4082H9.86043L7.79899 11.4404L11.4534 7.41125H11.5176C11.1355 7.10205 11.0786 6.66163 11.0786 6.38053C11.0786 5.75378 11.5036 5.22529 12.1093 5.043Z" fill="white"/>
<path d="M15.3888 13.4082L17.6377 11.4404L13.569 7.46423C13.9904 7.15759 14.077 6.84904 14.077 6.38053C14.077 5.73113 13.6961 5.20253 13.0463 5.03257V3.66317H14.3581V2.72616H13.0463V1.32063H12.0156V2.72616H10.7037V3.66317H12.1093V5.043C11.5036 5.22529 11.0786 5.75378 11.0786 6.38053C11.0786 6.66163 11.1355 7.10205 11.5176 7.41125H11.4534L7.79899 11.4404L9.86043 13.4082M15.3888 13.4082H15.951V15.5633H9.20452V13.4082H9.86043M15.3888 13.4082H9.86043" stroke="url(#paint1_linear)" stroke-width="0.723179"/>
<defs>
<linearGradient id="paint0_linear" x1="12.5652" y1="14.9192" x2="12.5652" y2="30.2794" gradientUnits="userSpaceOnUse">
<stop stop-color="#38180B"/>
<stop offset="1" stop-color="#3A1A0C"/>
</linearGradient>
<linearGradient id="paint1_linear" x1="12.7183" y1="1.32063" x2="12.7183" y2="15.5633" gradientUnits="userSpaceOnUse">
<stop stop-color="#38180B"/>
<stop offset="1" stop-color="#3A1A0C"/>
</linearGradient>
</defs>
</svg>
