<svg width="26" height="26" viewBox="0 0 26 26" fill="none" xmlns="http://www.w3.org/2000/svg">
<path d="M19.3278 25.1785H6.7324V21.5944L7.85881 20.7752V19.956C7.85881 19.956 8.07219 19.7224 8.38491 19.3416C9.10055 18.4702 10.3364 16.8279 10.7261 15.4503C11.2859 13.4708 10.5213 9.81827 10.5213 9.81827H15.8461C15.8461 9.81827 14.9766 12.8564 15.4365 14.8359C15.7709 16.2752 17.0265 18.3281 17.6869 19.3416C17.9349 19.722 18.099 19.956 18.099 19.956V20.7752L19.3278 21.5944V25.1785Z" fill="white"/>
<path d="M7.85881 20.7752L6.7324 21.5944V25.1785H19.3278V21.5944L18.099 20.7752M7.85881 20.7752V19.956C7.85881 19.956 8.07219 19.7224 8.38491 19.3416M7.85881 20.7752H18.099M18.099 20.7752V19.956C18.099 19.956 17.9349 19.722 17.6869 19.3416M8.38491 19.3416C9.10055 18.4702 10.3364 16.8279 10.7261 15.4503C11.2859 13.4708 10.5213 9.81827 10.5213 9.81827H15.8461C15.8461 9.81827 14.9766 12.8564 15.4365 14.8359C15.7709 16.2752 17.0265 18.3281 17.6869 19.3416M8.38491 19.3416H17.6869" stroke="url(#paint0_linear)" stroke-width="0.723179"/>
<path d="M13.9642 4.93153C14.2783 4.63265 14.5971 4.0922 14.5971 3.62438C14.5971 2.7183 13.8626 1.98382 12.9565 1.98382C12.0504 1.98382 11.3159 2.7183 11.3159 3.62438C11.3159 4.15789 11.7619 4.63193 12.1562 4.93153L11.3159 6.08523C11.3159 6.08523 10.0761 5.96062 9.3108 6.08523C8.54552 6.20984 7.21452 7.0878 7.21452 7.0878C7.21452 7.0878 8.79465 7.75873 9.3108 8.36379C9.82695 8.96886 10.5868 10.1866 10.5868 10.1866H9.9488V12.1918H16.4199V10.1866H15.8731C15.8731 10.1866 16.435 8.96886 17.0579 8.36379C17.6808 7.75873 19.063 7.0878 19.063 7.0878C19.063 7.0878 17.8588 6.20984 17.0579 6.08523C16.257 5.96062 14.9616 6.08523 14.9616 6.08523L13.9642 4.93153Z" fill="white"/>
<path d="M10.5868 10.1866C10.5868 10.1866 9.82695 8.96886 9.3108 8.36379C8.79465 7.75873 7.21452 7.0878 7.21452 7.0878C7.21452 7.0878 8.54552 6.20984 9.3108 6.08523C10.0761 5.96062 11.3159 6.08523 11.3159 6.08523L12.1562 4.93153C11.7619 4.63193 11.3159 4.15789 11.3159 3.62438C11.3159 2.7183 12.0504 1.98382 12.9565 1.98382C13.8626 1.98382 14.5971 2.7183 14.5971 3.62438C14.5971 4.0922 14.2783 4.63265 13.9642 4.93153L14.9616 6.08523C14.9616 6.08523 16.257 5.96062 17.0579 6.08523C17.8588 6.20984 19.063 7.0878 19.063 7.0878C19.063 7.0878 17.6808 7.75873 17.0579 8.36379C16.435 8.96886 15.8731 10.1866 15.8731 10.1866M10.5868 10.1866H9.9488V12.1918H16.4199V10.1866H15.8731M10.5868 10.1866H15.8731" stroke="url(#paint1_linear)" stroke-width="0.723179"/>
<defs>
<linearGradient id="paint0_linear" x1="13.0301" y1="9.81827" x2="13.0301" y2="25.1785" gradientUnits="userSpaceOnUse">
<stop stop-color="#38180B"/>
<stop offset="1" stop-color="#3A1A0C"/>
</linearGradient>
<linearGradient id="paint1_linear" x1="13.1388" y1="1.98382" x2="13.1388" y2="12.1918" gradientUnits="userSpaceOnUse">
<stop stop-color="#38180B"/>
<stop offset="1" stop-color="#3A1A0C"/>
</linearGradient>
</defs>
</svg>
