<svg width="26" height="26" viewBox="0 0 26 26" fill="none" xmlns="http://www.w3.org/2000/svg">
<path d="M19.4307 24.3807H6.85291V20.8017L7.97775 19.9836V19.1655C7.97775 19.1655 8.19083 18.9322 8.50311 18.552C9.21775 17.6818 10.4519 16.0418 10.841 14.6662C11.4001 12.6894 10.6365 9.04196 10.6365 9.04196H15.9539C15.9539 9.04196 15.0856 12.0759 15.5449 14.0526C15.8788 15.4898 17.1326 17.5399 17.7921 18.552C18.0397 18.9319 18.2036 19.1655 18.2036 19.1655V19.9836L19.4307 20.8017V24.3807Z" fill="white"/>
<path d="M7.97775 19.9836L6.85291 20.8016V24.3807H19.4307V20.8016L18.2036 19.9836M7.97775 19.9836V19.1655C7.97775 19.1655 8.19083 18.9322 8.50311 18.552M7.97775 19.9836H18.2036M18.2036 19.9836V19.1655C18.2036 19.1655 18.0397 18.9319 17.7921 18.552M8.50311 18.552C9.21775 17.6818 10.4519 16.0418 10.841 14.6662C11.4001 12.6894 10.6365 9.04196 10.6365 9.04196H15.9539C15.9539 9.04196 15.0856 12.0759 15.5449 14.0526C15.8788 15.4898 17.1326 17.5399 17.7921 18.552M8.50311 18.552H17.7921" stroke="url(#paint0_linear)" stroke-width="0.722168"/>
<circle cx="13.2952" cy="6.38324" r="3.78355" fill="white" stroke="url(#paint1_linear)" stroke-width="0.722168"/>
<defs>
<linearGradient id="paint0_linear" x1="13.1418" y1="9.04196" x2="13.1418" y2="24.3807" gradientUnits="userSpaceOnUse">
<stop stop-color="#38180B"/>
<stop offset="1" stop-color="#3A1A0C"/>
</linearGradient>
<linearGradient id="paint1_linear" x1="13.2952" y1="2.59969" x2="13.2952" y2="10.1668" gradientUnits="userSpaceOnUse">
<stop stop-color="#38180B"/>
<stop offset="1" stop-color="#3A1A0C"/>
</linearGradient>
</defs>
</svg>
