<svg width="26" height="26" viewBox="0 0 26 26" fill="none" xmlns="http://www.w3.org/2000/svg">
<path d="M19.457 24.37H6.86162V20.786L7.98804 19.9668V19.1476C7.98804 19.1476 8.20141 18.914 8.51413 18.5332C9.22977 17.6617 10.4657 16.0195 10.8553 14.6419C11.4151 12.6624 10.6505 9.00983 10.6505 9.00983H15.9753C15.9753 9.00983 15.1058 12.048 15.5657 14.0275C15.9001 15.4667 17.1557 17.5197 17.8161 18.5332C18.0641 18.9136 18.2282 19.1476 18.2282 19.1476V19.9668L19.457 20.786V24.37Z" fill="white"/>
<path d="M7.98804 19.9668L6.86162 20.786V24.37H19.457V20.786L18.2282 19.9668M7.98804 19.9668V19.1476C7.98804 19.1476 8.20141 18.914 8.51413 18.5332M7.98804 19.9668H18.2282M18.2282 19.9668V19.1476C18.2282 19.1476 18.0641 18.9136 17.8161 18.5332M8.51413 18.5332C9.22977 17.6617 10.4657 16.0195 10.8553 14.6419C11.4151 12.6624 10.6505 9.00983 10.6505 9.00983H15.9753C15.9753 9.00983 15.1058 12.048 15.5657 14.0275C15.9001 15.4667 17.1557 17.5197 17.8161 18.5332M8.51413 18.5332H17.8161" stroke="url(#paint0_linear)" stroke-width="0.723179"/>
<path d="M6.92187 2.10431H10.4213V5.73828H11.6326V2.10431H14.8628V5.73828H16.0741V2.10431H19.4389V8.16093V8.96848L18.3622 10.1798H8.40238L6.92187 8.96848V8.16093V2.10431Z" fill="white"/>
<path d="M6.92187 8.16093V8.96848L8.40238 10.1798H18.3622L19.4389 8.96848V8.16093M6.92187 8.16093V2.10431H10.4213V5.73828H11.6326V2.10431H14.8628V5.73828H16.0741V2.10431H19.4389V8.16093M6.92187 8.16093H19.4389" stroke="url(#paint1_linear)" stroke-width="0.723179"/>
<defs>
<linearGradient id="paint0_linear" x1="13.1593" y1="9.00983" x2="13.1593" y2="24.37" gradientUnits="userSpaceOnUse">
<stop stop-color="#38180B"/>
<stop offset="1" stop-color="#3A1A0C"/>
</linearGradient>
<linearGradient id="paint1_linear" x1="13.1804" y1="2.10431" x2="13.1804" y2="10.1798" gradientUnits="userSpaceOnUse">
<stop stop-color="#38180B"/>
<stop offset="1" stop-color="#3A1A0C"/>
</linearGradient>
</defs>
</svg>
