<svg width="26" height="26" viewBox="0 0 26 26" fill="none" xmlns="http://www.w3.org/2000/svg">
<path d="M19.6639 24.086H7.06858V20.502L8.195 19.6828V18.8635C8.195 18.8635 8.40837 18.6299 8.72109 18.2491C9.43673 17.3777 10.6726 15.7354 11.0622 14.3579C11.6221 12.3784 10.8574 8.72581 10.8574 8.72581H16.1823C16.1823 8.72581 15.3128 11.764 15.7727 13.7435C16.1071 15.1827 17.3626 17.2357 18.0231 18.2491C18.2711 18.6296 18.4351 18.8635 18.4351 18.8635V19.6828L19.6639 20.502V24.086Z" fill="url(#paint0_linear)"/>
<path d="M8.195 19.6828L7.06858 20.502V24.086H19.6639V20.502L18.4351 19.6828M8.195 19.6828V18.8635C8.195 18.8635 8.40837 18.6299 8.72109 18.2491M8.195 19.6828H18.4351M18.4351 19.6828V18.8635C18.4351 18.8635 18.2711 18.6296 18.0231 18.2491M8.72109 18.2491C9.43673 17.3777 10.6726 15.7354 11.0622 14.3579C11.6221 12.3784 10.8574 8.72581 10.8574 8.72581H16.1823C16.1823 8.72581 15.3128 11.764 15.7727 13.7435C16.1071 15.1827 17.3626 17.2357 18.0231 18.2491M8.72109 18.2491H18.0231" stroke="white" stroke-width="0.723179"/>
<path d="M14.4059 4.0451C14.7805 3.78954 15.0194 3.40207 15.0194 2.96832C15.0194 2.19874 14.2674 1.57487 13.3396 1.57487C12.4119 1.57487 11.6599 2.19874 11.6599 2.96832C11.6599 3.40292 11.8997 3.79106 12.2756 4.0466L9.38016 6.35241C9.38016 6.35241 8.78024 6.92252 8.78024 7.44727C8.78024 7.97201 9.14019 9.03978 9.14019 9.03978L9.38016 10.3337H17.0591L17.4191 9.03978C17.4191 9.03978 17.899 7.97201 17.899 7.44727C17.899 6.92252 17.4191 6.35241 17.4191 6.35241L14.4059 4.0451Z" fill="url(#paint1_linear)"/>
<path d="M9.14019 9.03978C9.14019 9.03978 8.78024 7.97201 8.78024 7.44727C8.78024 6.92252 9.38016 6.35241 9.38016 6.35241L12.2756 4.0466C11.8997 3.79106 11.6599 3.40292 11.6599 2.96832C11.6599 2.19874 12.4119 1.57487 13.3396 1.57487C14.2674 1.57487 15.0194 2.19874 15.0194 2.96832C15.0194 3.40207 14.7805 3.78954 14.4059 4.0451L17.4191 6.35241C17.4191 6.35241 17.899 6.92252 17.899 7.44727C17.899 7.97201 17.4191 9.03978 17.4191 9.03978M9.14019 9.03978L9.38016 10.3337H17.0591L17.4191 9.03978M9.14019 9.03978H13.2796H17.4191" stroke="white" stroke-width="0.723179"/>
<defs>
<linearGradient id="paint0_linear" x1="13.3663" y1="8.72581" x2="13.3663" y2="24.086" gradientUnits="userSpaceOnUse">
<stop stop-color="#38180B"/>
<stop offset="1" stop-color="#3A1A0C"/>
</linearGradient>
<linearGradient id="paint1_linear" x1="13.3396" y1="1.57487" x2="13.3396" y2="10.3337" gradientUnits="userSpaceOnUse">
<stop stop-color="#38180B"/>
<stop offset="1" stop-color="#3A1A0C"/>
</linearGradient>
</defs>
</svg>
