<svg width="26" height="26" viewBox="0 0 26 26" fill="none" xmlns="http://www.w3.org/2000/svg">
<path d="M19.8752 24.4209H7.31627V20.7579L8.4675 19.8159L9.20011 18.2461C9.20011 18.2461 8.93379 16.9132 9.35709 15.525C9.97558 13.4966 12.3398 9.76881 12.3398 9.76881C12.3398 9.76881 11.5549 10.92 9.82805 10.5014C8.1012 10.0828 6.37435 11.3387 6.37435 11.3387L5.53709 8.82689L8.4675 7.04771C8.4675 7.04771 8.44399 6.05005 9.20011 5.47785C9.95623 4.90565 12.3398 4.1173 12.3398 4.1173V1.81483C12.3398 1.81483 17.4545 5.13856 18.6193 8.40826C19.7841 11.678 18.3053 18.2461 18.3053 18.2461L18.7239 19.8159L19.8752 20.7579V24.4209Z" fill="url(#paint0_linear)"/>
<path d="M18.7239 19.8159L19.8752 20.7579V24.4209H7.31627V20.7579L8.4675 19.8159M18.7239 19.8159L18.3053 18.2461M18.7239 19.8159H8.4675M18.3053 18.2461C18.3053 18.2461 19.7841 11.678 18.6193 8.40826C17.4545 5.13856 12.3398 1.81483 12.3398 1.81483V4.1173C12.3398 4.1173 9.95623 4.90565 9.20011 5.47785C8.44399 6.05005 8.4675 7.04771 8.4675 7.04771L5.53709 8.82689L6.37435 11.3387C6.37435 11.3387 8.1012 10.0828 9.82805 10.5014C11.5549 10.92 12.3398 9.76881 12.3398 9.76881C12.3398 9.76881 9.97558 13.4966 9.35709 15.525C8.93379 16.9132 9.20011 18.2461 9.20011 18.2461M18.3053 18.2461H9.20011M9.20011 18.2461L8.4675 19.8159" stroke="white" stroke-width="0.723179"/>
<defs>
<linearGradient id="paint0_linear" x1="12.7061" y1="1.81483" x2="12.7061" y2="24.4209" gradientUnits="userSpaceOnUse">
<stop stop-color="#38180B"/>
<stop offset="1" stop-color="#3A1A0C"/>
</linearGradient>
</defs>
</svg>
