<svg width="26" height="31" viewBox="0 0 26 31" fill="none" xmlns="http://www.w3.org/2000/svg">
<path d="M19.2844 29.8944H6.68903V26.3104L7.81544 25.4912V24.6719C7.81544 24.6719 8.02882 24.4383 8.34154 24.0575C9.05718 23.1861 10.2931 21.5438 10.6827 20.1663C11.2425 18.1868 10.4779 14.5342 10.4779 14.5342H15.8027C15.8027 14.5342 14.9333 17.5724 15.3931 19.5519C15.7275 20.9911 16.9831 23.0441 17.6436 24.0575C17.8915 24.438 18.0556 24.6719 18.0556 24.6719V25.4912L19.2844 26.3104V29.8944Z" fill="url(#paint0_linear)"/>
<path d="M7.81544 25.4912L6.68903 26.3104V29.8944H19.2844V26.3104L18.0556 25.4912M7.81544 25.4912V24.6719C7.81544 24.6719 8.02882 24.4383 8.34154 24.0575M7.81544 25.4912H18.0556M18.0556 25.4912V24.6719C18.0556 24.6719 17.8915 24.438 17.6436 24.0575M8.34154 24.0575C9.05718 23.1861 10.2931 21.5438 10.6827 20.1663C11.2425 18.1868 10.4779 14.5342 10.4779 14.5342H15.8027C15.8027 14.5342 14.9333 17.5724 15.3931 19.5519C15.7275 20.9911 16.9831 23.0441 17.6436 24.0575M8.34154 24.0575H17.6436" stroke="white" stroke-width="0.723179"/>
<path d="M12.5307 4.658V3.27818H11.1252V2.34116H12.437V0.935631H13.4677V2.34116H14.7796V3.27818H13.4677V4.64757C14.1175 4.81753 14.4985 5.34613 14.4985 5.99553C14.4985 6.46404 14.4119 6.77259 13.9904 7.07923L18.0591 11.0554L15.8103 13.0232H16.3725V15.1783H9.62597V13.0232H10.2819L8.22044 11.0554L11.8748 7.02625H11.9391C11.5569 6.71705 11.5 6.27663 11.5 5.99553C11.5 5.36879 11.925 4.84029 12.5307 4.658Z" fill="url(#paint1_linear)"/>
<path d="M15.8103 13.0232L18.0591 11.0554L13.9904 7.07923C14.4119 6.77259 14.4985 6.46404 14.4985 5.99553C14.4985 5.34613 14.1175 4.81753 13.4677 4.64757V3.27818H14.7796V2.34116H13.4677V0.935631H12.437V2.34116H11.1252V3.27818H12.5307V4.658C11.925 4.84029 11.5 5.36879 11.5 5.99553C11.5 6.27663 11.5569 6.71705 11.9391 7.02625H11.8748L8.22044 11.0554L10.2819 13.0232M15.8103 13.0232H16.3725V15.1783H9.62597V13.0232H10.2819M15.8103 13.0232H10.2819" stroke="white" stroke-width="0.723179"/>
<defs>
<linearGradient id="paint0_linear" x1="12.9867" y1="14.5342" x2="12.9867" y2="29.8944" gradientUnits="userSpaceOnUse">
<stop stop-color="#38180B"/>
<stop offset="1" stop-color="#3A1A0C"/>
</linearGradient>
<linearGradient id="paint1_linear" x1="13.1398" y1="0.935631" x2="13.1398" y2="15.1783" gradientUnits="userSpaceOnUse">
<stop stop-color="#38180B"/>
<stop offset="1" stop-color="#3A1A0C"/>
</linearGradient>
</defs>
</svg>
