<svg width="26" height="26" viewBox="0 0 26 26" fill="none" xmlns="http://www.w3.org/2000/svg">
<path d="M19.3277 24.8944H6.73237V21.3104L7.85878 20.4912V19.672C7.85878 19.672 8.07216 19.4384 8.38488 19.0576C9.10052 18.1861 10.3364 16.5439 10.726 15.1663C11.2859 13.1868 10.5212 9.53423 10.5212 9.53423H15.8461C15.8461 9.53423 14.9766 12.5724 15.4365 14.5519C15.7709 15.9911 17.0264 18.0441 17.6869 19.0576C17.9348 19.438 18.0989 19.672 18.0989 19.672V20.4912L19.3277 21.3104V24.8944Z" fill="url(#paint0_linear)"/>
<path d="M7.85878 20.4912L6.73237 21.3104V24.8944H19.3277V21.3104L18.0989 20.4912M7.85878 20.4912V19.672C7.85878 19.672 8.07216 19.4384 8.38488 19.0576M7.85878 20.4912H18.0989M18.0989 20.4912V19.672C18.0989 19.672 17.9348 19.438 17.6869 19.0576M8.38488 19.0576C9.10052 18.1861 10.3364 16.5439 10.726 15.1663C11.2859 13.1868 10.5212 9.53423 10.5212 9.53423H15.8461C15.8461 9.53423 14.9766 12.5724 15.4365 14.5519C15.7709 15.9911 17.0264 18.0441 17.6869 19.0576M8.38488 19.0576H17.6869" stroke="white" stroke-width="0.723179"/>
<path d="M13.9641 4.64748C14.2783 4.3486 14.597 3.80815 14.597 3.34033C14.597 2.43425 13.8625 1.69977 12.9565 1.69977C12.0504 1.69977 11.3159 2.43425 11.3159 3.34033C11.3159 3.87384 11.7618 4.34788 12.1562 4.64748L11.3159 5.80118C11.3159 5.80118 10.076 5.67657 9.31076 5.80118C8.54548 5.92579 7.21448 6.80375 7.21448 6.80375C7.21448 6.80375 8.79461 7.47468 9.31076 8.07974C9.8269 8.68481 10.5868 9.90259 10.5868 9.90259H9.94875V11.9077H16.4199V9.90259H15.873C15.873 9.90259 16.435 8.68481 17.0579 8.07974C17.6807 7.47468 19.063 6.80375 19.063 6.80375C19.063 6.80375 17.8587 5.92579 17.0579 5.80118C16.257 5.67657 14.9616 5.80118 14.9616 5.80118L13.9641 4.64748Z" fill="url(#paint1_linear)"/>
<path d="M10.5868 9.90259C10.5868 9.90259 9.8269 8.68481 9.31076 8.07974C8.79461 7.47468 7.21448 6.80375 7.21448 6.80375C7.21448 6.80375 8.54548 5.92579 9.31076 5.80118C10.076 5.67657 11.3159 5.80118 11.3159 5.80118L12.1562 4.64748C11.7618 4.34788 11.3159 3.87384 11.3159 3.34033C11.3159 2.43425 12.0504 1.69977 12.9565 1.69977C13.8625 1.69977 14.597 2.43425 14.597 3.34033C14.597 3.80815 14.2783 4.3486 13.9641 4.64748L14.9616 5.80118C14.9616 5.80118 16.257 5.67657 17.0579 5.80118C17.8587 5.92579 19.063 6.80375 19.063 6.80375C19.063 6.80375 17.6807 7.47468 17.0579 8.07974C16.435 8.68481 15.873 9.90259 15.873 9.90259M10.5868 9.90259H9.94875V11.9077H16.4199V9.90259H15.873M10.5868 9.90259H15.873" stroke="white" stroke-width="0.723179"/>
<defs>
<linearGradient id="paint0_linear" x1="13.0301" y1="9.53423" x2="13.0301" y2="24.8944" gradientUnits="userSpaceOnUse">
<stop stop-color="#38180B"/>
<stop offset="1" stop-color="#3A1A0C"/>
</linearGradient>
<linearGradient id="paint1_linear" x1="13.1387" y1="1.69977" x2="13.1387" y2="11.9077" gradientUnits="userSpaceOnUse">
<stop stop-color="#38180B"/>
<stop offset="1" stop-color="#3A1A0C"/>
</linearGradient>
</defs>
</svg>
