<svg width="26" height="26" viewBox="0 0 26 26" fill="none" xmlns="http://www.w3.org/2000/svg">
<path d="M19.457 24.0429H6.86159V20.4588L7.988 19.6396V18.8204C7.988 18.8204 8.20138 18.5868 8.5141 18.206C9.22974 17.3346 10.4656 15.6923 10.8552 14.3148C11.4151 12.3352 10.6504 8.68268 10.6504 8.68268H15.9753C15.9753 8.68268 15.1058 11.7208 15.5657 13.7003C15.9001 15.1396 17.1556 17.1925 17.8161 18.206C18.0641 18.5865 18.2281 18.8204 18.2281 18.8204V19.6396L19.457 20.4588V24.0429Z" fill="url(#paint0_linear)"/>
<path d="M7.988 19.6396L6.86159 20.4588V24.0429H19.457V20.4588L18.2281 19.6396M7.988 19.6396V18.8204C7.988 18.8204 8.20138 18.5868 8.5141 18.206M7.988 19.6396H18.2281M18.2281 19.6396V18.8204C18.2281 18.8204 18.0641 18.5865 17.8161 18.206M8.5141 18.206C9.22974 17.3346 10.4656 15.6923 10.8552 14.3148C11.4151 12.3352 10.6504 8.68268 10.6504 8.68268H15.9753C15.9753 8.68268 15.1058 11.7208 15.5657 13.7003C15.9001 15.1396 17.1556 17.1926 17.8161 18.206M8.5141 18.206H17.8161" stroke="white" stroke-width="0.723179"/>
<circle cx="13.3129" cy="6.02024" r="3.78885" fill="url(#paint1_linear)" stroke="white" stroke-width="0.723179"/>
<defs>
<linearGradient id="paint0_linear" x1="13.1593" y1="8.68268" x2="13.1593" y2="24.0429" gradientUnits="userSpaceOnUse">
<stop stop-color="#38180B"/>
<stop offset="1" stop-color="#3A1A0C"/>
</linearGradient>
<linearGradient id="paint1_linear" x1="13.3129" y1="2.23138" x2="13.3129" y2="9.80909" gradientUnits="userSpaceOnUse">
<stop stop-color="#38180B"/>
<stop offset="1" stop-color="#3A1A0C"/>
</linearGradient>
</defs>
</svg>
