<svg width="26" height="26" viewBox="0 0 26 26" fill="none" xmlns="http://www.w3.org/2000/svg">
<path d="M19.457 24.086H6.86162V20.502L7.98804 19.6828V18.8636C7.98804 18.8636 8.20141 18.63 8.51413 18.2492C9.22977 17.3777 10.4657 15.7355 10.8553 14.3579C11.4151 12.3784 10.6505 8.72583 10.6505 8.72583H15.9753C15.9753 8.72583 15.1058 11.764 15.5657 13.7435C15.9001 15.1827 17.1557 17.2357 17.8161 18.2492C18.0641 18.6296 18.2282 18.8636 18.2282 18.8636V19.6828L19.457 20.502V24.086Z" fill="url(#paint0_linear)"/>
<path d="M7.98804 19.6828L6.86162 20.502V24.086H19.457V20.502L18.2282 19.6828M7.98804 19.6828V18.8636C7.98804 18.8636 8.20141 18.63 8.51413 18.2492M7.98804 19.6828H18.2282M18.2282 19.6828V18.8636C18.2282 18.8636 18.0641 18.6296 17.8161 18.2492M8.51413 18.2492C9.22977 17.3777 10.4657 15.7355 10.8553 14.3579C11.4151 12.3784 10.6505 8.72583 10.6505 8.72583H15.9753C15.9753 8.72583 15.1058 11.764 15.5657 13.7435C15.9001 15.1827 17.1557 17.2357 17.8161 18.2492M8.51413 18.2492H17.8161" stroke="white" stroke-width="0.723179"/>
<path d="M6.92187 1.82033H10.4213V5.4543H11.6326V1.82033H14.8628V5.4543H16.0741V1.82033H19.4389V7.87695V8.6845L18.3622 9.89583H8.40238L6.92187 8.6845V7.87695V1.82033Z" fill="url(#paint1_linear)"/>
<path d="M6.92187 7.87695V8.6845L8.40238 9.89583H18.3622L19.4389 8.6845V7.87695M6.92187 7.87695V1.82033H10.4213V5.4543H11.6326V1.82033H14.8628V5.4543H16.0741V1.82033H19.4389V7.87695M6.92187 7.87695H19.4389" stroke="white" stroke-width="0.723179"/>
<defs>
<linearGradient id="paint0_linear" x1="13.1593" y1="8.72583" x2="13.1593" y2="24.086" gradientUnits="userSpaceOnUse">
<stop stop-color="#38180B"/>
<stop offset="1" stop-color="#3A1A0C"/>
</linearGradient>
<linearGradient id="paint1_linear" x1="13.1804" y1="1.82033" x2="13.1804" y2="9.89583" gradientUnits="userSpaceOnUse">
<stop stop-color="#38180B"/>
<stop offset="1" stop-color="#3A1A0C"/>
</linearGradient>
</defs>
</svg>
